<mxfile host="app.diagrams.net" modified="2023-02-12T13:53:11.246Z" agent="5.0 (Macintosh; Intel Mac OS X 10_15_7) AppleWebKit/537.36 (KHTML, like Gecko) Chrome/109.0.0.0 Safari/537.36" etag="G7LMHnsrLRVi3iORwwaS" version="20.8.17" type="github">
  <diagram name="Page-1" id="OiAAreseT4Ou6ZYbAtUu">
    <mxGraphModel dx="546" dy="1234" grid="1" gridSize="10" guides="1" tooltips="1" connect="1" arrows="1" fold="1" page="1" pageScale="1" pageWidth="827" pageHeight="1169" math="0" shadow="0">
      <root>
        <mxCell id="0" />
        <mxCell id="1" parent="0" />
        <mxCell id="Kl7tfWJofYw5UtfO86dM-1" value="User" style="shape=umlActor;verticalLabelPosition=bottom;verticalAlign=top;html=1;" vertex="1" parent="1">
          <mxGeometry x="80" y="200" width="30" height="60" as="geometry" />
        </mxCell>
        <mxCell id="Kl7tfWJofYw5UtfO86dM-2" value="Scooter" style="shape=umlActor;verticalLabelPosition=bottom;verticalAlign=top;html=1;" vertex="1" parent="1">
          <mxGeometry x="770" y="200" width="30" height="60" as="geometry" />
        </mxCell>
        <mxCell id="Kl7tfWJofYw5UtfO86dM-3" value="" style="whiteSpace=wrap;html=1;verticalAlign=top;" vertex="1" parent="1">
          <mxGeometry x="145" y="40" width="605" height="730" as="geometry" />
        </mxCell>
        <mxCell id="Kl7tfWJofYw5UtfO86dM-5" value="ScooterApp" style="text;align=center;fontStyle=1;verticalAlign=middle;spacingLeft=3;spacingRight=3;strokeColor=none;rotatable=0;points=[[0,0.5],[1,0.5]];portConstraint=eastwest;" vertex="1" parent="1">
          <mxGeometry x="312.5" y="14" width="80" height="26" as="geometry" />
        </mxCell>
        <mxCell id="Kl7tfWJofYw5UtfO86dM-6" value="Sign Up" style="ellipse;whiteSpace=wrap;html=1;" vertex="1" parent="1">
          <mxGeometry x="200" y="90" width="140" height="70" as="geometry" />
        </mxCell>
        <mxCell id="Kl7tfWJofYw5UtfO86dM-7" value="Login" style="ellipse;whiteSpace=wrap;html=1;" vertex="1" parent="1">
          <mxGeometry x="200" y="170" width="140" height="70" as="geometry" />
        </mxCell>
        <mxCell id="Kl7tfWJofYw5UtfO86dM-13" value="Insert Payment Details" style="ellipse;whiteSpace=wrap;html=1;" vertex="1" parent="1">
          <mxGeometry x="200" y="330" width="140" height="70" as="geometry" />
        </mxCell>
        <mxCell id="Kl7tfWJofYw5UtfO86dM-14" value="Locate nearby Scooter" style="ellipse;whiteSpace=wrap;html=1;" vertex="1" parent="1">
          <mxGeometry x="200" y="250" width="140" height="70" as="geometry" />
        </mxCell>
        <mxCell id="Kl7tfWJofYw5UtfO86dM-15" value="Scan Scooter QR code" style="ellipse;whiteSpace=wrap;html=1;" vertex="1" parent="1">
          <mxGeometry x="392.5" y="220" width="140" height="70" as="geometry" />
        </mxCell>
        <mxCell id="Kl7tfWJofYw5UtfO86dM-16" value="Pay" style="ellipse;whiteSpace=wrap;html=1;" vertex="1" parent="1">
          <mxGeometry x="200" y="570" width="140" height="70" as="geometry" />
        </mxCell>
        <mxCell id="Kl7tfWJofYw5UtfO86dM-17" value="End Rental Period" style="ellipse;whiteSpace=wrap;html=1;" vertex="1" parent="1">
          <mxGeometry x="200" y="490" width="140" height="70" as="geometry" />
        </mxCell>
        <mxCell id="Kl7tfWJofYw5UtfO86dM-18" value="Initiate Rental Period" style="ellipse;whiteSpace=wrap;html=1;" vertex="1" parent="1">
          <mxGeometry x="200" y="410" width="140" height="70" as="geometry" />
        </mxCell>
        <mxCell id="Kl7tfWJofYw5UtfO86dM-19" value="return" style="html=1;verticalAlign=bottom;endArrow=open;dashed=1;endSize=8;edgeStyle=elbowEdgeStyle;elbow=vertical;curved=0;rounded=0;exitX=1;exitY=0.5;exitDx=0;exitDy=0;entryX=0;entryY=0.5;entryDx=0;entryDy=0;" edge="1" parent="1" source="Kl7tfWJofYw5UtfO86dM-6" target="Kl7tfWJofYw5UtfO86dM-43">
          <mxGeometry relative="1" as="geometry">
            <mxPoint x="490" y="340" as="sourcePoint" />
            <mxPoint x="410" y="340" as="targetPoint" />
          </mxGeometry>
        </mxCell>
        <mxCell id="Kl7tfWJofYw5UtfO86dM-21" value="" style="endArrow=none;html=1;rounded=0;entryX=0;entryY=0.5;entryDx=0;entryDy=0;exitX=1;exitY=0.3333333333333333;exitDx=0;exitDy=0;exitPerimeter=0;" edge="1" parent="1" source="Kl7tfWJofYw5UtfO86dM-1" target="Kl7tfWJofYw5UtfO86dM-6">
          <mxGeometry width="50" height="50" relative="1" as="geometry">
            <mxPoint x="100" y="360" as="sourcePoint" />
            <mxPoint x="150" y="310" as="targetPoint" />
          </mxGeometry>
        </mxCell>
        <mxCell id="Kl7tfWJofYw5UtfO86dM-22" value="" style="endArrow=none;html=1;rounded=0;entryX=0;entryY=0.5;entryDx=0;entryDy=0;" edge="1" parent="1" target="Kl7tfWJofYw5UtfO86dM-7">
          <mxGeometry width="50" height="50" relative="1" as="geometry">
            <mxPoint x="110" y="220" as="sourcePoint" />
            <mxPoint x="210.00000000000006" y="135" as="targetPoint" />
          </mxGeometry>
        </mxCell>
        <mxCell id="Kl7tfWJofYw5UtfO86dM-23" value="" style="endArrow=none;html=1;rounded=0;entryX=0;entryY=0.5;entryDx=0;entryDy=0;" edge="1" parent="1" target="Kl7tfWJofYw5UtfO86dM-14">
          <mxGeometry width="50" height="50" relative="1" as="geometry">
            <mxPoint x="110" y="220" as="sourcePoint" />
            <mxPoint x="210.00000000000006" y="215" as="targetPoint" />
          </mxGeometry>
        </mxCell>
        <mxCell id="Kl7tfWJofYw5UtfO86dM-24" value="" style="endArrow=none;html=1;rounded=0;entryX=0;entryY=0.5;entryDx=0;entryDy=0;" edge="1" parent="1" target="Kl7tfWJofYw5UtfO86dM-13">
          <mxGeometry width="50" height="50" relative="1" as="geometry">
            <mxPoint x="110" y="220" as="sourcePoint" />
            <mxPoint x="210.00000000000006" y="295" as="targetPoint" />
          </mxGeometry>
        </mxCell>
        <mxCell id="Kl7tfWJofYw5UtfO86dM-25" value="" style="endArrow=none;html=1;rounded=0;entryX=0;entryY=0.5;entryDx=0;entryDy=0;exitX=1;exitY=0.3333333333333333;exitDx=0;exitDy=0;exitPerimeter=0;" edge="1" parent="1" source="Kl7tfWJofYw5UtfO86dM-1" target="Kl7tfWJofYw5UtfO86dM-18">
          <mxGeometry width="50" height="50" relative="1" as="geometry">
            <mxPoint x="119.99999999999994" y="230" as="sourcePoint" />
            <mxPoint x="210.00000000000006" y="375" as="targetPoint" />
          </mxGeometry>
        </mxCell>
        <mxCell id="Kl7tfWJofYw5UtfO86dM-26" value="" style="endArrow=none;html=1;rounded=0;entryX=0;entryY=0.5;entryDx=0;entryDy=0;" edge="1" parent="1" target="Kl7tfWJofYw5UtfO86dM-17">
          <mxGeometry width="50" height="50" relative="1" as="geometry">
            <mxPoint x="110" y="220" as="sourcePoint" />
            <mxPoint x="210.00000000000006" y="455" as="targetPoint" />
          </mxGeometry>
        </mxCell>
        <mxCell id="Kl7tfWJofYw5UtfO86dM-27" value="" style="endArrow=none;html=1;rounded=0;entryX=0;entryY=0.5;entryDx=0;entryDy=0;" edge="1" parent="1" target="Kl7tfWJofYw5UtfO86dM-16">
          <mxGeometry width="50" height="50" relative="1" as="geometry">
            <mxPoint x="110" y="220" as="sourcePoint" />
            <mxPoint x="210.00000000000006" y="535" as="targetPoint" />
          </mxGeometry>
        </mxCell>
        <mxCell id="Kl7tfWJofYw5UtfO86dM-28" value="" style="endArrow=none;html=1;rounded=0;entryX=0;entryY=0.3333333333333333;entryDx=0;entryDy=0;entryPerimeter=0;" edge="1" parent="1" source="Kl7tfWJofYw5UtfO86dM-3" target="Kl7tfWJofYw5UtfO86dM-2">
          <mxGeometry width="50" height="50" relative="1" as="geometry">
            <mxPoint x="119.99999999999994" y="230" as="sourcePoint" />
            <mxPoint x="210.00000000000006" y="615" as="targetPoint" />
          </mxGeometry>
        </mxCell>
        <mxCell id="Kl7tfWJofYw5UtfO86dM-31" value="Verify Payment Details" style="ellipse;whiteSpace=wrap;html=1;" vertex="1" parent="1">
          <mxGeometry x="570" y="100" width="140" height="70" as="geometry" />
        </mxCell>
        <mxCell id="Kl7tfWJofYw5UtfO86dM-33" value="Release Scooter" style="ellipse;whiteSpace=wrap;html=1;" vertex="1" parent="1">
          <mxGeometry x="570" y="180" width="140" height="70" as="geometry" />
        </mxCell>
        <mxCell id="Kl7tfWJofYw5UtfO86dM-34" value="Make Scooter Unavailable" style="ellipse;whiteSpace=wrap;html=1;" vertex="1" parent="1">
          <mxGeometry x="570" y="340" width="140" height="70" as="geometry" />
        </mxCell>
        <mxCell id="Kl7tfWJofYw5UtfO86dM-35" value="Provide Rental Total" style="ellipse;whiteSpace=wrap;html=1;" vertex="1" parent="1">
          <mxGeometry x="570" y="260" width="140" height="70" as="geometry" />
        </mxCell>
        <mxCell id="Kl7tfWJofYw5UtfO86dM-36" value="Request Repair" style="ellipse;whiteSpace=wrap;html=1;" vertex="1" parent="1">
          <mxGeometry x="570" y="420" width="140" height="70" as="geometry" />
        </mxCell>
        <mxCell id="Kl7tfWJofYw5UtfO86dM-37" value="" style="ellipse;whiteSpace=wrap;html=1;" vertex="1" parent="1">
          <mxGeometry x="570" y="580" width="140" height="70" as="geometry" />
        </mxCell>
        <mxCell id="Kl7tfWJofYw5UtfO86dM-38" value="" style="ellipse;whiteSpace=wrap;html=1;" vertex="1" parent="1">
          <mxGeometry x="570" y="500" width="140" height="70" as="geometry" />
        </mxCell>
        <mxCell id="Kl7tfWJofYw5UtfO86dM-39" value="Dock Scooter" style="ellipse;whiteSpace=wrap;html=1;" vertex="1" parent="1">
          <mxGeometry x="380" y="480" width="140" height="70" as="geometry" />
        </mxCell>
        <mxCell id="Kl7tfWJofYw5UtfO86dM-40" value="return" style="html=1;verticalAlign=bottom;endArrow=open;dashed=1;endSize=8;edgeStyle=elbowEdgeStyle;elbow=vertical;curved=0;rounded=0;exitX=1;exitY=0.5;exitDx=0;exitDy=0;entryX=0;entryY=0.5;entryDx=0;entryDy=0;" edge="1" parent="1" source="Kl7tfWJofYw5UtfO86dM-17" target="Kl7tfWJofYw5UtfO86dM-39">
          <mxGeometry relative="1" as="geometry">
            <mxPoint x="350" y="295" as="sourcePoint" />
            <mxPoint x="402.5" y="265" as="targetPoint" />
          </mxGeometry>
        </mxCell>
        <mxCell id="Kl7tfWJofYw5UtfO86dM-41" value="Recharge" style="ellipse;whiteSpace=wrap;html=1;" vertex="1" parent="1">
          <mxGeometry x="392.5" y="350" width="140" height="70" as="geometry" />
        </mxCell>
        <mxCell id="Kl7tfWJofYw5UtfO86dM-42" value="return" style="html=1;verticalAlign=bottom;endArrow=open;dashed=1;endSize=8;edgeStyle=elbowEdgeStyle;elbow=vertical;curved=0;rounded=0;entryX=0.5;entryY=1;entryDx=0;entryDy=0;" edge="1" parent="1" target="Kl7tfWJofYw5UtfO86dM-41">
          <mxGeometry relative="1" as="geometry">
            <mxPoint x="440" y="470" as="sourcePoint" />
            <mxPoint x="390" y="525" as="targetPoint" />
          </mxGeometry>
        </mxCell>
        <mxCell id="Kl7tfWJofYw5UtfO86dM-43" value="Verify Age Restriction" style="ellipse;whiteSpace=wrap;html=1;" vertex="1" parent="1">
          <mxGeometry x="402.5" y="50" width="140" height="70" as="geometry" />
        </mxCell>
        <mxCell id="Kl7tfWJofYw5UtfO86dM-44" value="Set Login and Password" style="ellipse;whiteSpace=wrap;html=1;" vertex="1" parent="1">
          <mxGeometry x="402.5" y="140" width="140" height="70" as="geometry" />
        </mxCell>
        <mxCell id="Kl7tfWJofYw5UtfO86dM-45" value="return" style="html=1;verticalAlign=bottom;endArrow=open;dashed=1;endSize=8;edgeStyle=elbowEdgeStyle;elbow=vertical;curved=0;rounded=0;exitX=1;exitY=0.5;exitDx=0;exitDy=0;entryX=0;entryY=0.5;entryDx=0;entryDy=0;" edge="1" parent="1" source="Kl7tfWJofYw5UtfO86dM-6" target="Kl7tfWJofYw5UtfO86dM-44">
          <mxGeometry relative="1" as="geometry">
            <mxPoint x="350" y="135" as="sourcePoint" />
            <mxPoint x="412.5" y="95" as="targetPoint" />
          </mxGeometry>
        </mxCell>
        <mxCell id="Kl7tfWJofYw5UtfO86dM-47" value="return" style="html=1;verticalAlign=bottom;endArrow=open;dashed=1;endSize=8;edgeStyle=elbowEdgeStyle;elbow=vertical;curved=0;rounded=0;exitX=1;exitY=0.5;exitDx=0;exitDy=0;entryX=0;entryY=0.5;entryDx=0;entryDy=0;" edge="1" parent="1" source="Kl7tfWJofYw5UtfO86dM-14" target="Kl7tfWJofYw5UtfO86dM-15">
          <mxGeometry relative="1" as="geometry">
            <mxPoint x="350" y="135" as="sourcePoint" />
            <mxPoint x="412.5" y="185" as="targetPoint" />
          </mxGeometry>
        </mxCell>
        <mxCell id="Kl7tfWJofYw5UtfO86dM-48" value="return" style="html=1;verticalAlign=bottom;endArrow=open;dashed=1;endSize=8;edgeStyle=elbowEdgeStyle;elbow=vertical;curved=0;rounded=0;entryX=1;entryY=0.5;entryDx=0;entryDy=0;exitX=0;exitY=1;exitDx=0;exitDy=0;" edge="1" parent="1" source="Kl7tfWJofYw5UtfO86dM-15" target="Kl7tfWJofYw5UtfO86dM-18">
          <mxGeometry relative="1" as="geometry">
            <mxPoint x="350" y="295" as="sourcePoint" />
            <mxPoint x="402.5" y="265" as="targetPoint" />
            <Array as="points">
              <mxPoint x="380" y="310" />
            </Array>
          </mxGeometry>
        </mxCell>
        <mxCell id="Kl7tfWJofYw5UtfO86dM-49" value="Log out" style="ellipse;whiteSpace=wrap;html=1;" vertex="1" parent="1">
          <mxGeometry x="200" y="650" width="140" height="70" as="geometry" />
        </mxCell>
        <mxCell id="Kl7tfWJofYw5UtfO86dM-50" value="" style="endArrow=none;html=1;rounded=0;entryX=0;entryY=0.5;entryDx=0;entryDy=0;" edge="1" parent="1" target="Kl7tfWJofYw5UtfO86dM-49">
          <mxGeometry width="50" height="50" relative="1" as="geometry">
            <mxPoint x="110" y="220" as="sourcePoint" />
            <mxPoint x="210" y="615" as="targetPoint" />
          </mxGeometry>
        </mxCell>
      </root>
    </mxGraphModel>
  </diagram>
</mxfile>
